# xmcd
#
# Track frame offsets:
#  150
#  14373
#  32187
#  48908
#  70054
#  98387
#  114831
#  135996
#  154336
#  169411
#  186536
#  217307
#  238249
#  255194
#
# Disc length: 3718 seconds
#
# Revision: 4
# Processed by: cddbd v1.5.1PL2 Copyright (c) Steve Scherf et al.
# Submitted via: Collectorz.com_Music_Collector 6.11
#
DISCID=be0e840e
DTITLE=Dave Hole - Ticket To Chicago
DYEAR=1997
DGENRE=Blues Rock
TTITLE0=Out Of Here
TTITLE1=You're Too Young
TTITLE2=Phone Line
TTITLE3=You Got The Blues
TTITLE4=My Bird Won't Sing
TTITLE5=Bermuda Triangle
TTITLE6=Wheeler Dealer
TTITLE7=Empty Train
TTITLE8=Why Can't You Be True?
TTITLE9=Beyond Jupiter
TTITLE10=Cold Blue Moon
TTITLE11=Outlaw
TTITLE12=Ain't No Justice
TTITLE13=William Harris - Bullfrog Blues
EXTD=
EXTT0=
EXTT1=
EXTT2=
EXTT3=
EXTT4=
EXTT5=
EXTT6=
EXTT7=
EXTT8=
EXTT9=
EXTT10=
EXTT11=
EXTT12=
EXTT13=
PLAYORDER=
